<svg viewBox="0 0 500 500" xmlns="http://www.w3.org/2000/svg"><path d="m68.4 119.63v252.95h276.22l5.81-252.95z" fill="#ecc83e"/><path d="m294.5 63.8a60.07 60.07 0 0 0 -49.57 26.26 55.59 55.59 0 0 0 -87.35 68.06h-90.3a13.36 13.36 0 0 0 -12.86 12.88v77.16a13.38 13.38 0 0 0 12.86 12.84h12.86v175.78a13.38 13.38 0 0 0 12.86 12.86h308.68a13.37 13.37 0 0 0 12.86-12.86v-175.78h12.86a13.38 13.38 0 0 0 12.86-12.87v-77.13a13.36 13.36 0 0 0 -12.86-12.86h-83.73a59.93 59.93 0 0 0 -49.17-94.34zm0 25.72a34.3 34.3 0 0 1 0 68.6h-34.3v-34.3a34.11 34.11 0 0 1 34.3-34.3zm-90 8.58a29.81 29.81 0 0 1 30 30v30h-30a30 30 0 1 1 0-60zm-124.36 85.74h154.34v51.44h-154.34zm180.06 0h154.34v51.44h-154.34zm-154.33 77.16h128.61v162.9h-128.61zm154.33 0h128.61v162.9h-128.61z"/></svg>