<?xml version="1.0" encoding="UTF-8"?>
<svg width="128px" height="128px" viewBox="0 0 128 128" version="1.1" xmlns="http://www.w3.org/2000/svg" xmlns:xlink="http://www.w3.org/1999/xlink">
    <!-- Generator: Sketch 50.2 (55047) - http://www.bohemiancoding.com/sketch -->
    <title>framework_motivation</title>
    <desc>Created with Sketch.</desc>
    <defs></defs>
    <g id="Page-1" stroke="none" stroke-width="1" fill="none" fill-rule="evenodd">
        <g id="framework_motivation" fill-rule="nonzero">
            <path d="M10.3344955,66.267601 C10.3344955,66.267601 1.96,59.3740005 8.4926949,48.8745002 C8.4926949,48.8745002 4.6400957,35.3330001 14.5238953,29.3418006 C14.5238953,29.3418006 14.7733956,18.0205001 22.1435967,15.5186004 C22.1435967,15.5186004 22.0610008,4.7294998 33.7030945,3.9507007 C33.7030945,3.9507007 37.8334961,1.0009994 42.6518936,1.0004997 C45.3500938,1 48.2636948,1.9253006 50.7895965,4.8120041 C50.7895965,4.8120041 50.7895965,91.8423004 50.7895965,91.9516983 C50.7895965,93.4052963 45.9545936,95.6757965 44.9169998,96.0820007 C43.3686943,96.689003 41.6503945,97.0005035 39.9286957,97.0005035 C36.7865944,97.0005035 33.6312943,95.9638976 31.4667969,93.794403 C27.9105949,90.2353973 25.7641945,85.5067977 20.7211952,83.4990005 C17.8393955,82.3516006 14.7860946,79.2606964 13.1923961,76.7177963 C11.2685966,73.6474991 10.405796,69.8394012 10.3344955,66.267601 Z" id="Shape-Copy" fill="#ECC83E"></path>
            <path d="M50.3344955,66.267601 C50.3344955,66.267601 41.96,59.3740005 48.4926949,48.8745002 C48.4926949,48.8745002 44.6400957,35.3330001 54.5238953,29.3418006 C54.5238953,29.3418006 54.7733956,18.0205001 62.1435967,15.5186004 C62.1435967,15.5186004 62.0610008,4.7294998 73.7030945,3.9507007 C73.7030945,3.9507007 77.8334961,1.0009994 82.6518936,1.0004997 C85.3500938,1 88.2636948,1.9253006 90.7895965,4.8120041 C90.7895965,4.8120041 90.7895965,91.8423004 90.7895965,91.9516983 C90.7895965,93.4052963 85.9545936,95.6757965 84.9169998,96.0820007 C83.3686943,96.689003 81.6503945,97.0005035 79.9286957,97.0005035 C76.7865944,97.0005035 73.6312943,95.9638976 71.4667969,93.794403 C67.9105949,90.2353973 65.7641945,85.5067977 60.7211952,83.4990005 C57.8393955,82.3516006 54.7860946,79.2606964 53.1923961,76.7177963 C51.2685966,73.6474991 50.405796,69.8394012 50.3344955,66.267601 Z" id="Shape-Copy-2" fill="#ECC83E" transform="translate(68.394955, 49.000501) scale(-1, 1) translate(-68.394955, -49.000501) "></path>
            <path d="M21.3344955,81.267601 C21.405796,84.8394012 22.2685966,88.6474991 24.1923961,91.7177963 C25.7860946,94.2606964 28.8393955,97.3516006 31.7211952,98.4990005 C36.7641945,100.506798 38.9105949,105.235397 42.4667969,108.794403 C44.6312943,110.963898 47.7865944,112.000504 50.9286957,112.000504 C52.6503945,112.000504 54.3686943,111.689003 55.9169998,111.082001 C56.9545936,110.675797 61.7895965,108.405296 61.7895965,106.951698 C61.7895965,106.8423 61.7895965,19.8120041 61.7895965,19.8120041 C59.2636948,16.9253006 56.3500938,16 53.6518936,16.0004997 C48.8334961,16.0009994 44.7030945,18.9507007 44.7030945,18.9507007 C33.0610008,19.7294998 33.1435967,30.5186004 33.1435967,30.5186004 C25.7733956,33.0205001 25.5238953,44.3418006 25.5238953,44.3418006 C15.6400957,50.3330001 19.4926949,63.8745002 19.4926949,63.8745002 C12.96,74.3740005 21.3344955,81.267601 21.3344955,81.267601 Z M22.0814953,67.4779968 C23.1752949,69.3345031 24.9306965,71.6083984 27.3910961,72.6884994 C27.6527958,72.8037033 27.9257965,72.8579025 28.1942959,72.8579025 C28.9638958,72.8579025 29.6972962,72.4111023 30.0263958,71.6615982 C30.4706955,70.6499023 30.0106964,69.4701996 28.9994965,69.0263977 C26.6786957,68.0073013 24.9437962,64.544899 24.471695,63.2969017 C24.2440949,62.6924019 23.7528954,62.269001 23.1786957,62.0942001 C22.6957951,59.7998008 21.5956955,52.2871017 26.7372952,48.3563995 C27.1942959,50.3311004 28.0214959,52.7266006 29.5145951,54.3726005 C29.909195,54.8075981 30.4520951,55.0288009 30.9965955,55.0288009 C31.4760953,55.0288009 31.9564954,54.8573989 32.3397943,54.5102996 C33.1576959,53.7681007 33.2196962,52.5033988 32.4774972,51.6851005 C30.8944951,49.9398994 30.2895947,46.0200004 30.1898957,44.6567001 C30.154295,44.1567001 29.9296952,43.7178001 29.5995961,43.3891983 C29.8856965,40.7280006 31.0175954,35.8866997 34.021,34.4873009 C34.896,35.8993988 36.6957971,38.1660004 39.9160005,39.7392998 C40.1986963,39.8773995 40.4975969,39.9429016 40.7924959,39.9429016 C41.5326959,39.9429016 42.244095,39.5303001 42.5907938,38.820301 C43.0756952,37.8280982 42.6645967,36.6304016 41.6718943,36.1455001 C38.7665942,34.7256011 37.5043948,32.6133002 37.1542971,31.9267997 L37.1435969,30.4878005 C37.1376956,29.7758998 37.318394,23.5767001 44.7733958,22.9652995 C44.1107943,25.0405005 44.3446963,27.2548999 45.5410006,29.3397998 C45.9110949,29.9839 46.5844958,30.3446998 47.2777941,30.3446998 C47.6151964,30.3446998 47.9574969,30.2588004 48.271496,30.0790996 C49.2294962,29.5293006 49.5604937,28.3066005 49.0106966,27.3486003 C48.0878946,25.7406997 48.2055971,24.1854991 49.3603937,22.7271003 C49.7982942,22.1737994 49.8935968,21.4619006 49.681595,20.8402995 C50.8202936,20.3892001 52.213894,20.0004996 53.652794,20.0004996 C55.242695,20.0004996 56.5834962,20.4736003 57.7895967,21.4736003 L57.7895967,30.8682002 C57.6395952,30.9813994 57.4980012,31.1093997 57.3808938,31.2686004 C55.9213944,33.2436981 54.1464959,35.4003982 51.5473939,35.9921989 C50.4706956,36.2378006 49.7963944,37.3096008 50.0414964,38.3866996 C50.2528955,39.3139991 51.0770952,39.9429015 51.9896966,39.9429015 C52.1371957,39.9429015 52.2865945,39.9262999 52.4360009,39.8926009 C54.6688958,39.3838004 56.4247933,38.1986998 57.7895966,36.921398 L57.7895966,47.3442 C57.3461953,47.6846007 57.0370942,48.2011984 56.9926949,48.7974013 C56.9804955,48.9623984 56.6308938,52.8628005 51.1708947,55.3198012 C50.1635934,55.7728995 49.7143937,56.9570006 50.1679993,57.9644011 C50.5014954,58.7051009 51.2299996,59.1440009 51.9926949,59.1440009 C52.2670937,59.1440009 52.5458947,59.0873984 52.8124962,58.9673003 C55.0180931,57.9746016 56.6132965,56.7671012 57.7895966,55.5405005 L57.7895966,100.251999 C57.1151963,100.402298 56.4916954,100.439903 55.9218941,100.3311 L53.9306946,99.2406997 C53.5351944,98.8525008 53.164093,98.3662032 52.8110008,97.7769012 L52.6312942,97.4756012 C51.202095,95.0791016 48.8114967,91.0679016 44.4003944,92.4355011 C43.3456955,92.7621994 42.7553939,93.8827972 43.0824966,94.9380035 C43.4091949,95.9926986 44.5282936,96.5858993 45.584999,96.2558975 C46.7787933,95.8856964 47.6679992,96.9634018 49.1957931,99.5243988 L49.3798942,99.8324966 C51.1796951,102.838898 53.6977958,104.399902 56.6450004,104.399902 C57.0190009,104.399902 57.4022941,104.367203 57.7895965,104.316902 L57.7895965,105.602501 C56.8759994,106.212898 55.2987937,107.028297 54.4570007,107.357903 C53.3847961,107.778297 52.1645965,108.000504 50.9286956,108.000504 C48.638195,108.000504 46.5863952,107.2603 45.2963943,105.9673 C44.334999,105.004898 43.4516944,103.889198 42.5160942,102.707497 C40.2313957,99.8218002 37.6420937,96.5507965 33.200695,94.7826995 C31.4320945,94.0785979 28.9638958,91.7993011 27.5820007,89.5938033 C26.1962948,87.3823012 25.3978958,84.3970031 25.3334961,81.1880034 L25.3300953,79.3759993 L23.9096966,78.2070006 C23.0404949,77.4580002 19.162096,73.6288986 22.0814953,67.4779968 Z" id="Shape" fill="#000000"></path>
            <path d="M38.0385971,67.3730011 C38.1088943,67.3730011 38.1796951,67.3695984 38.2509994,67.3618011 C39.3495941,67.2461013 40.1459999,66.2611999 40.0297965,65.1631011 C39.8192939,63.1684989 40.5287932,61.9721984 42.1977958,60.0463981 C45.5219993,56.2168006 46.3412933,52.7056007 44.9374961,48.3065986 C44.6020965,47.2549018 43.4770965,46.6729011 42.4242934,47.0093002 C41.3720969,47.3446998 40.7910002,48.4701996 41.1269988,49.5224991 C42.1010932,52.5756989 41.5907935,54.6436005 39.1762961,57.4253006 C37.3783951,59.5 35.6562958,61.8384018 36.0521965,65.5830002 C36.1605949,66.6103973 37.0282936,67.3730011 38.0385971,67.3730011 Z" id="Shape" fill="#000000"></path>
            <path d="M42.194294,86.5727997 C43.2987938,86.5727997 44.194294,85.6772003 44.194294,84.5727997 C44.194294,83.4682999 43.2987938,82.5727997 42.194294,82.5727997 C39.8187943,82.5727997 37.433094,80.2134018 36.9750939,79.5454025 C36.5033951,78.6240005 35.3935967,78.2070007 34.4223939,78.6132965 C33.4037973,79.0400009 32.9237939,80.2124023 33.3505937,81.2310028 C33.872097,82.4750977 37.6478958,86.5727997 42.194294,86.5727997 Z" id="Shape" fill="#000000"></path>
            <path d="M50.5922966,81.0874023 C51.0820007,81.0874023 51.5731964,80.9082031 51.9589996,80.5468978 C52.7650947,79.7919997 52.8065948,78.5263976 52.0512962,77.7201995 C48.1317939,73.5352019 50.4066963,69.6470031 50.6864967,69.2070006 C51.2855949,68.2875975 51.0316963,67.0551985 50.1151962,66.4477996 C49.1947937,65.8374023 47.9530945,66.0897979 47.343296,67.0106963 C45.7953948,69.3477019 44.1771965,75.1645964 49.1322937,80.4545974 C49.5258942,80.875 50.058094,81.0874023 50.5922966,81.0874023 Z" id="Shape" fill="#000000"></path>
            <path d="M96.2782974,98.4990005 C99.1610946,97.3516006 102.21479,94.2606964 103.807594,91.7177963 C105.731392,88.6474991 106.593292,84.8394012 106.665497,81.267601 C106.665497,81.267601 115.041,74.3740005 108.507294,63.8745003 C108.507294,63.8745003 112.359894,50.3330002 102.476593,44.3418007 C102.476593,44.3418007 102.226097,33.0205002 94.8544922,30.5186005 C94.8544922,30.5186005 94.9380036,19.7294999 83.2973938,18.9507008 C83.2973938,18.9507008 79.1664963,16.0004998 74.3480911,16.0004998 C71.6493911,16.0004998 68.735794,16.9253007 66.2103958,19.8120003 C66.2103958,19.8120003 66.2103958,106.842304 66.2103958,106.951694 C66.2103958,108.405292 71.0453949,110.675793 72.0830002,111.081997 C73.6312943,111.688999 75.3495941,112.0005 77.0717926,112.0005 C80.2138977,112.0005 83.3686905,110.963894 85.532692,108.794399 C89.0893936,105.235397 91.2362976,100.506798 96.2782974,98.4990005 Z M82.7006912,105.969704 C81.4130935,107.2603 79.3617935,108.000504 77.0717926,108.000504 C75.8353958,108.000504 74.6151962,107.778298 73.5414963,107.357399 C72.7011948,107.028297 71.1240006,106.212898 70.2103958,105.602501 L70.2103958,104.316902 C70.5976944,104.367203 70.9810028,104.399902 71.3550033,104.399902 C74.3017959,104.399902 76.8212966,102.838898 78.6210937,99.8330001 L78.8041915,99.5259017 C80.3310927,96.9644012 81.2147979,95.8852996 82.4154967,96.2558974 C83.4735945,96.5858992 84.5912932,95.9922026 84.9179991,94.9380034 C85.2450941,93.8827971 84.6547926,92.7621993 83.6000975,92.435501 C79.1894911,91.0702971 76.7973936,95.0811004 75.3681944,97.4785003 L75.1894911,97.7778014 C74.836891,98.3662032 74.4662932,98.8516005 74.0712965,99.2393035 L72.0766905,100.332001 C71.5072935,100.440399 70.8842924,100.402801 70.2103956,100.252403 L70.2103956,55.5410004 C71.3866956,56.767601 72.9813917,57.9751015 75.1859968,58.9673004 C75.4525907,59.0873985 75.7313917,59.144001 76.0058973,59.144001 C76.7685926,59.144001 77.497093,58.705101 77.8305967,57.9644012 C78.2841947,56.9570007 77.8349989,55.7728996 76.8275907,55.3198013 C71.4066923,52.8799019 71.0243909,49.0161018 71.0072935,48.8017997 C70.9730909,48.1924018 70.6630934,47.6621017 70.2103956,47.3179015 L70.2103956,36.9213982 C71.575691,38.1991997 73.3305967,39.3843003 75.5624922,39.8926011 C75.7123945,39.9263001 75.8612974,39.9429017 76.0087965,39.9429017 C76.9213942,39.9429017 77.7455976,39.3139993 77.9570005,38.3866998 C78.2020948,37.309601 77.5277937,36.2378007 76.4511945,35.9921991 C73.8550031,35.4014017 72.0795972,33.2440988 70.6190946,31.2686006 C70.5014951,31.1098997 70.3603971,30.9818994 70.2103956,30.8687002 L70.2103956,21.4736006 C71.4164961,20.4736006 72.757797,20.0004999 74.3480909,20.0004999 C75.7870939,20.0004999 77.1811979,20.3896009 78.318794,20.8398001 C78.1068952,21.4613993 78.2020948,22.1728995 78.6395948,22.7261011 C79.7938917,24.1854994 79.9115903,25.7406999 78.9892957,27.3491003 C78.439491,28.3071005 78.7710035,29.5298006 79.728996,30.0790998 C80.042999,30.2593004 80.3847959,30.3447 80.7221906,30.3447 C81.4154966,30.3447 82.0893934,29.9839002 82.4589994,29.3393995 C83.6552961,27.2539007 83.8886945,25.0391008 83.2250974,22.9629003 C86.3960035,23.2178003 88.5438917,24.4204008 89.7728956,26.6474992 C90.8114927,28.5287992 90.8539961,30.4878007 90.8539961,30.4878007 L90.854492,30.4878007 L90.843292,31.9326001 C90.4980009,32.6030007 89.2206953,34.7318993 86.3280942,36.1455003 C85.3353955,36.6304017 84.9242932,37.8280984 85.4091947,38.8203012 C85.7558973,39.5303003 86.4672925,39.9429018 87.2074964,39.9429018 C87.5019987,39.9429018 87.8012922,39.8773996 88.0839994,39.7393 C91.3036954,38.1660006 93.1034925,35.9003985 93.978996,34.4883005 C96.98439,35.889599 98.115196,40.7349016 98.4008939,43.3857004 C98.0683973,43.714802 97.8441922,44.1553003 97.8085935,44.6596987 C97.7196958,45.9268 97.1083906,49.9370005 95.5224912,51.6851008 C94.7802961,52.5033991 94.8422925,53.768101 95.6601941,54.5102999 C96.042999,54.8573992 96.523895,55.0288012 97.0033948,55.0288012 C97.5478971,55.0288012 98.0902936,54.8075983 98.4853971,54.3726008 C99.9784925,52.7261012 100.805694,50.3301013 101.262695,48.3554995 C106.424293,52.2938998 105.314491,59.787102 104.822296,62.0947001 C104.247093,62.2700007 103.754394,62.6938021 103.527794,63.3003008 C103.093796,64.4604034 101.330093,68.0034027 99,69.0259018 C97.9882965,69.4697037 97.5282974,70.6499023 97.9721909,71.6611023 C98.3012925,72.4111023 99.0351944,72.8579025 99.8046952,72.8579025 C100.073196,72.8579025 100.346191,72.8037033 100.607391,72.689003 C103.06929,71.6083984 104.824692,69.3339996 105.918892,67.4775009 C108.839394,73.6288986 104.961891,77.4561004 104.123497,78.1791992 L102.70359,79.347702 L102.666496,81.1865005 C102.601593,84.3979034 101.802696,87.3837966 100.417496,89.5947036 C99.0365906,91.7993011 96.5687943,94.078102 94.7982941,94.7826995 C90.3583908,96.5507964 87.7689972,99.8212966 85.4843979,102.706497 C84.5487976,103.888702 83.6650009,105.004898 82.7006912,105.969704 Z" id="Shape" fill="#000000"></path>
            <path d="M87.970192,65.1631012 C87.8539963,66.2617035 88.6508942,67.2461014 89.7490006,67.3618012 C89.8202973,67.3695984 89.8910904,67.3730012 89.9613953,67.3730012 C90.971695,67.3730012 91.8397904,66.6099015 91.9477921,65.5830003 C92.3432923,61.8368989 90.6210938,59.4990007 88.8227921,57.4243013 C86.409195,54.6440012 85.8988953,52.5761987 86.8730011,49.5224992 C87.2089996,48.4701997 86.6278915,47.3447 85.5756912,47.0093003 C84.5248947,46.6733018 83.3978958,47.2543984 83.0624923,48.3065987 C81.6586913,52.7061005 82.4779968,56.2173005 85.8012923,60.0453987 C87.4711914,61.9716988 88.1806946,63.1674995 87.970192,65.1631012 Z" id="Shape" fill="#000000"></path>
            <path d="M94.6498947,81.232399 C95.077095,80.2138977 94.5985947,79.0414963 93.5800934,78.6138001 C92.6083908,78.2074967 91.4980011,78.6234971 91.0263977,79.5444031 C90.5683975,80.2128983 88.1815948,82.5727997 85.8061905,82.5727997 C84.7016907,82.5727997 83.8061905,83.4682999 83.8061905,84.5727997 C83.8061905,85.6772003 84.7016907,86.5727997 85.8061905,86.5727997 C90.3495941,86.5727997 94.1273956,82.4760971 94.6498947,81.232399 Z" id="Shape" fill="#000000"></path>
            <path d="M77.9047928,66.4458008 C76.9843979,67.0438996 76.7230911,68.2798004 77.3124924,69.205101 C77.5863953,69.6352997 79.875,73.528801 75.9491959,77.7201996 C75.1937943,78.5263977 75.2353974,79.7919998 76.0414963,80.5468979 C76.4271927,80.908699 76.9184952,81.0874024 77.4081955,81.0874024 C77.9418945,81.0874024 78.4745941,80.8750001 78.8681946,80.4545975 C83.8241959,75.1645966 82.2050934,69.3471985 80.6562958,67.0102997 C80.0507965,66.0957031 78.8251953,65.8490982 77.9047928,66.4458008 Z" id="Shape" fill="#000000"></path>
            <path d="M78.9511948,118.036102 C78.9511948,116.931602 78.0556946,116.036102 76.9511948,116.036102 L51.0487938,116.036102 C49.944294,116.036102 49.0487938,116.931602 49.0487938,118.036102 C49.0487938,119.140602 49.944294,120.036102 51.0487938,120.036102 L76.9511948,120.036102 C78.0556946,120.036102 78.9511948,119.140602 78.9511948,118.036102 Z" id="Shape" fill="#000000"></path>
            <path d="M56.4057961,124 C55.3012963,124 54.4057961,124.8955 54.4057961,126 C54.4057961,127.1045 55.3012963,128 56.4057961,128 L71.5941926,128 C72.6986924,128 73.5941926,127.1045 73.5941926,126 C73.5941926,124.8955 72.6986924,124 71.5941926,124 L56.4057961,124 Z" id="Shape" fill="#000000"></path>
            <path d="M66,10 L66,2 C66,0.8954999 65.1044922,0 64,0 C62.8954964,0 62,0.8955 62,2 L62,10 C62,11.1044998 62.8954964,12 64,12 C65.1044922,12 66,11.1044998 66,10 Z" id="Shape" fill="#000000"></path>
            <path d="M126,62 L118,62 C116.895493,62 116,62.8955002 116,64 C116,65.1044998 116.895493,66 118,66 L126,66 C127.104492,66 128,65.1044998 128,64 C128,62.8955002 127.104492,62 126,62 Z" id="Shape" fill="#000000"></path>
            <path d="M2,66 L10,66 C11.104496,66 12,65.1044998 12,64 C12,62.8955002 11.104496,62 10,62 L2,62 C0.8954962,62 0,62.8955002 0,64 C0,65.1044998 0.8954962,66 2,66 Z" id="Shape" fill="#000000"></path>
            <path d="M25.8163948,27.8159008 C26.3280964,27.8159008 26.8402958,27.6205997 27.2304954,27.2299995 C28.0116958,26.4491996 28.0116958,25.1826 27.2304954,24.4018993 L21.5736961,18.7451 C20.7934951,17.9638996 19.525896,17.9638996 18.7455959,18.7451 C17.9643955,19.5258999 17.9643955,20.7924995 18.7455959,21.5732002 L24.402296,27.2299995 C24.7924957,27.6205997 25.3046951,27.8159008 25.8163948,27.8159008 Z" id="Shape" fill="#000000"></path>
            <path d="M103.597694,27.2294998 L109.254394,21.5727997 C110.035591,20.7919998 110.035591,19.5254002 109.254394,18.7446003 C108.47409,17.9633999 107.206497,17.9633999 106.426292,18.7446003 L100.769493,24.4013996 C99.9882965,25.1821003 99.9882965,26.4486999 100.769493,27.2294998 C101.159691,27.6201 101.67189,27.8153992 102.183594,27.8153992 C102.695297,27.8153992 103.207497,27.6201 103.597694,27.2294998 Z" id="Shape" fill="#000000"></path>
            <path d="M120.093796,37.5141983 L112.752892,40.6948013 C111.739296,41.1338005 111.273392,42.3115005 111.712891,43.3246994 C112.039597,44.0796013 112.775894,44.5303001 113.54879,44.5303001 C113.814491,44.5303001 114.084,44.4771003 114.342796,44.3647003 L121.683594,41.1841011 C122.697296,40.7450981 123.163094,39.5674019 122.723595,38.5541992 C122.284691,37.5400009 121.105492,37.0741997 120.093796,37.5141983 Z" id="Shape" fill="#000000"></path>
            <path d="M5.8827963,42.3091011 L13.2836962,45.3466988 C13.5321961,45.4487 13.7890959,45.4971009 14.0419998,45.4971009 C14.8295955,45.4971009 15.575696,45.0293008 15.893096,44.2559014 C16.3124962,43.2338982 15.8241959,42.065899 14.8021956,41.6464997 L7.4013963,38.6088982 C6.378396,38.1889992 5.2113962,38.6777 4.7919998,39.6996994 C4.3725963,40.721199 4.860796,41.8895988 5.8827963,42.3091011 Z" id="Shape" fill="#000000"></path>
            <path d="M43.8959999,15.8817997 C44.144001,15.8817997 44.3959999,15.8353996 44.6400947,15.7377996 C45.6650009,15.3261995 46.1630935,14.1620998 45.7519988,13.1366996 L42.7733955,5.7114 C42.3617935,4.6859998 41.1977958,4.1904001 40.1723938,4.5995998 C39.1474953,5.0111999 38.649395,6.1753001 39.0604935,7.2006998 L42.0390969,14.6260004 C42.3524933,15.4071999 43.1030006,15.8817997 43.8959999,15.8817997 Z" id="Shape" fill="#000000"></path>
            <path d="M86.1996918,16.7754002 C86.9618912,16.7754002 87.6898957,16.3374005 88.0238953,15.5972004 L91.3134919,8.3042002 C91.7675934,7.2974 91.3192902,6.1128001 90.3124924,5.6587 C89.3056946,5.2061 88.1215973,5.6522999 87.6669998,6.6596999 L84.3773956,13.9525995 C83.923294,14.9595003 84.3715973,16.1439991 85.3783951,16.5981006 C85.6449966,16.7182999 85.9247971,16.7754002 86.1996918,16.7754002 Z" id="Shape" fill="#000000"></path>
        </g>
    </g>
</svg>