<svg viewBox="0 0 500 500" xmlns="http://www.w3.org/2000/svg"><path d="m153.93 163.79 79.95 146.65s6.08 24.28-13.39 12.09-56.92-31.39-56.92-31.39-17.39 9.12-12.6 21.4 157.19 105.37 157.19 105.37l102.73-56s2-160.2-54.16-167.44-106.22 27.32-112.86 41.72-57.36-90.19-57.36-90.19-34.42-9.26-32.58 17.79z" fill="#ecc83e"/><path d="m159.33 129.08a40.6 40.6 0 0 0 -16.16 54.92l66.66 122.27c-12-8.89-28.86-16.36-43-12.76-19.35 4.61-32.64 29.34-28.8 47.57 2.36 10 9.34 19.11 20.68 28.69 53.32 42.9 110.77 80.68 167.39 102.28a10.25 10.25 0 0 0 8.32-.58l119.91-65.37a10.24 10.24 0 0 0 4.29-4.68c7.62-16.44 9.13-38.19 7.2-62.08a291.07 291.07 0 0 0 -16-73.35c-8.51-23.59-19.63-44-34.23-59.47-14.09-15-34.32-22.79-53.86-14.93a66.78 66.78 0 0 0 -12.09 8.21c-5.25-4.2-11-7.11-16.47-7.76a36.06 36.06 0 0 0 -22.17 4.16 29 29 0 0 0 -11.61 12.8c-3.5-1.88-7.12-3.84-10.62-4.3a36.79 36.79 0 0 0 -22.48 4.3 39.62 39.62 0 0 0 -11.66 10.32l-40.4-74.11c-13.34-23.57-38.52-25.15-54.9-16.16zm9.67 17.76a20 20 0 0 1 27.45 8.08l50.84 93.26a10.12 10.12 0 0 0 19.05-5.34c-.26-5.15 4.82-13.43 9.62-16.05a19.48 19.48 0 0 1 10.25-2c3.62.47 6.81 1.58 10.33 8a10.12 10.12 0 0 0 19-5.13c-.33-9.19 1-11.41 5.38-13.91a20.48 20.48 0 0 1 9.84-1.77c3.86.46 7.17 1.6 10.61 7.9a10.11 10.11 0 0 0 18.54-1.65c2.46-3.49 5.49-5.8 9.83-8.06 11.32-4.42 20.44-.78 31.42 10.42s21.65 30.34 29.51 52.14a272.87 272.87 0 0 1 15 68.15c1.66 20.53-.31 38.33-4.61 49.33l-112 61.06c-51.22-19.78-111.79-60-157.15-97.06-9.71-8.19-13.33-14-14.21-17.81-1.4-10.39 5.17-20.26 13.74-23.34 11.38-1.59 17.16 3.43 25.13 8.44l36.92 25.79a10.11 10.11 0 0 0 14.59-13.18l-87.14-159.82a20 20 0 0 1 8.06-27.45z"/><path d="m110.91 40.26a10.1 10.1 0 0 0 -4 13.72l29 53.29a10.12 10.12 0 0 0 17.77-9.68l-29.05-53.29a10.1 10.1 0 0 0 -13.72-4.04zm-75.91 122.02a10 10 0 0 0 9.77 10.33l60.74 1.45a10.05 10.05 0 1 0 .56-20.1l-60.74-1.45c-6.53.11-9.75 4.49-10.33 9.77zm205.77-116.28-31.69 51.81a10.06 10.06 0 1 0 17.2 10.43l31.72-51.84a10 10 0 0 0 -3.39-13.82c-5.85-3.04-10.47-1.42-13.84 3.42z"/></svg>